<svg xmlns="http://www.w3.org/2000/svg" width="128" height="128" viewBox="0 0 128 128">
	<title>Jolazz</title>
	<rect width="128" height="128" rx="28" fill="#2f4a3f"/>
	<g fill="none" stroke="#f3ede1" stroke-width="5" stroke-linecap="round" stroke-linejoin="round">
		<!-- beer glass -->
		<path d="M44 40h28v40a10 10 0 0 1-10 10h-8a10 10 0 0 1-10-10z"/>
		<path d="M72 50h12a8 8 0 0 1 0 16h-12"/>
	</g>
	<!-- foam -->
	<g fill="#f3ede1">
		<circle cx="52" cy="38" r="5"/>
		<circle cx="62" cy="34" r="6"/>
		<circle cx="72" cy="38" r="5"/>
	</g>
	<!-- amber fill -->
	<path d="M48 58h20v20a8 8 0 0 1-8 8h-4a8 8 0 0 1-8-8z" fill="#e3a93c"/>
</svg>
